HIERARCHY
ROOT joint_Root
{
	OFFSET 0.0 0.0 0.0
	CHANNELS 6 Xposition Yposition Zposition Zrotation Xrotation Yrotation 
	JOINT Hips
	{
		OFFSET -17.1583 93.1646 452.98
		CHANNELS 6 Xposition Yposition Zposition Zrotation Xrotation Yrotation 
		JOINT Spine
		{
			OFFSET 15.7357 0.0 0.0
			CHANNELS 6 Xposition Yposition Zposition Zrotation Xrotation Yrotation 
			JOINT Chest
			{
				OFFSET 8.98455 -0.406207 0.0
				CHANNELS 6 Xposition Yposition Zposition Zrotation Xrotation Yrotation 
				JOINT Neck
				{
					OFFSET 16.3773 0.0 0.0
					CHANNELS 6 Xposition Yposition Zposition Zrotation Xrotation Yrotation 
					JOINT Head
					{
						OFFSET 6.45672 0.0 0.0
						CHANNELS 6 Xposition Yposition Zposition Zrotation Xrotation Yrotation 
						End Site
						{
							OFFSET 0.0 0.0 0.0
						}
					}
				}
				JOINT Shoulder_L
				{
					OFFSET 12.9942 -0.242716 4.98039
					CHANNELS 6 Xposition Yposition Zposition Zrotation Xrotation Yrotation 
					JOINT UpperArm_L
					{
						OFFSET 5.34809 0.0 0.0
						CHANNELS 6 Xposition Yposition Zposition Zrotation Xrotation Yrotation 
						JOINT LowerArm_L
						{
							OFFSET 24.3286 1.87007e-05 0.0
							CHANNELS 6 Xposition Yposition Zposition Zrotation Xrotation Yrotation 
							JOINT Hand_L
							{
								OFFSET 22.2916 0.0 0.0
								CHANNELS 6 Xposition Yposition Zposition Zrotation Xrotation Yrotation 
								End Site
								{
									OFFSET 0.0 0.0 0.0
								}
							}
						}
					}
				}
				JOINT Shoulder_R
				{
					OFFSET 12.9945 -0.242716 -4.98039
					CHANNELS 6 Xposition Yposition Zposition Zrotation Xrotation Yrotation 
					JOINT UpperArm_R
					{
						OFFSET -5.34813 0.0 0.0
						CHANNELS 6 Xposition Yposition Zposition Zrotation Xrotation Yrotation 
						JOINT LowerArm_R
						{
							OFFSET -24.3289 0.000322201 0.0
							CHANNELS 6 Xposition Yposition Zposition Zrotation Xrotation Yrotation 
							JOINT Hand_R
							{
								OFFSET -22.2915 -0.000108084 0.0
								CHANNELS 6 Xposition Yposition Zposition Zrotation Xrotation Yrotation 
								End Site
								{
									OFFSET 0.0 0.0 0.0
								}
							}
						}
					}
				}
			}
		}
		JOINT UpperLeg_L
		{
			OFFSET -2.19248 -6.46944 0.0
			CHANNELS 6 Xposition Yposition Zposition Zrotation Xrotation Yrotation 
			JOINT LowerLeg_L
			{
				OFFSET 39.0811 0.0 -1.23785e-05
				CHANNELS 6 Xposition Yposition Zposition Zrotation Xrotation Yrotation 
				JOINT Foot_L
				{
					OFFSET 40.9854 0.0 -1.26872e-05
					CHANNELS 6 Xposition Yposition Zposition Zrotation Xrotation Yrotation 
					JOINT Toes_L
					{
						OFFSET 11.7543 0.0 0.0
						CHANNELS 6 Xposition Yposition Zposition Zrotation Xrotation Yrotation 
						End Site
						{
							OFFSET 0.0 0.0 0.0
						}
					}
				}
			}
		}
		JOINT UpperLeg_R
		{
			OFFSET -2.19251 6.46944 0.0
			CHANNELS 6 Xposition Yposition Zposition Zrotation Xrotation Yrotation 
			JOINT LowerLeg_R
			{
				OFFSET -39.0811 -0.00228153 -0.0401928
				CHANNELS 6 Xposition Yposition Zposition Zrotation Xrotation Yrotation 
				JOINT Foot_R
				{
					OFFSET -40.9854 0.0 0.0
					CHANNELS 6 Xposition Yposition Zposition Zrotation Xrotation Yrotation 
					JOINT Toes_R
					{
						OFFSET -11.7543 0.0 0.0
						CHANNELS 6 Xposition Yposition Zposition Zrotation Xrotation Yrotation 
						End Site
						{
							OFFSET 0.0 0.0 0.0
						}
					}
				}
			}
		}
	}
}
MOTION
Frames:	4
Frame Time:	0.0333333
0.000000 0.000000 0.000000 0.000000 0.000000 -0.000000 -4.710800 91.897100 -0.900439 84.508400 1.587840 4.410890 15.735700 0.000005 -0.000001 64.374300 86.487500 -61.959900 8.984550 -0.406207 -0.000000 -1.359810 -3.229760 4.790110 16.377300 -0.000001 -0.000001 9.956660 1.293220 3.522640 6.456720 -0.000001 -0.000000 3.948190 2.396100 9.945010 12.994200 -0.242716 4.980390 -92.432100 7.086010 -71.001200 5.348090 -0.000007 -0.000001 -73.582900 30.012600 1.222530 24.328600 0.000019 0.000005 13.384900 29.767200 -25.607800 22.291600 -0.000001 0.000005 -4.248860 5.054660 6.134180 12.994500 -0.242716 -4.980390 87.700500 6.732410 -71.092600 -5.348130 -0.000001 -0.000004 -67.461100 -9.252280 -7.888990 -24.328900 0.000322 -0.000009 9.797750 -10.298500 -135.991000 -22.291500 -0.000108 -0.000004 64.868400 5.496390 -6.402080 -2.192480 -6.469440 -0.000000 -171.176000 5.327140 -3.860590 39.081100 -0.000007 -0.000012 0.373944 -0.709784 27.783000 40.985400 -0.000006 -0.000013 -0.091325 9.299190 -76.211000 11.754300 -0.000000 0.000003 0.000431 0.160017 -10.087000 -2.192510 6.469440 -0.000001 -169.995000 10.316000 -176.262000 -39.081100 -0.002282 -0.040193 0.123620 -0.455506 14.793000 -40.985400 0.000008 0.000006 6.115070 0.646622 -70.868300 -11.754300 -0.000006 -0.000006 -0.008792 0.262042 -5.929680
0.000000 0.000000 0.000000 0.000000 0.000000 -0.000000 -4.727980 91.893000 -0.891326 84.494300 1.556080 4.440220 15.735700 0.000005 -0.000001 64.413200 86.474400 -61.974600 8.984550 -0.406207 -0.000000 -1.333080 -3.238170 4.838990 16.377300 -0.000001 -0.000001 10.052900 1.333400 3.482820 6.456720 -0.000001 -0.000000 3.880220 2.473960 9.775990 12.994200 -0.242716 4.980390 -92.436900 7.089590 -70.975400 5.348090 -0.000007 -0.000001 -73.609800 29.875100 1.204410 24.328600 0.000019 0.000005 13.406400 29.802500 -25.620800 22.291600 -0.000001 0.000005 -4.218370 5.053090 6.168990 12.994500 -0.242716 -4.980390 87.676300 6.807160 -71.101600 -5.348130 -0.000001 -0.000004 -66.677100 -7.884210 -7.459610 -24.328900 0.000322 -0.000009 16.447400 -16.916900 -134.585000 -22.291500 -0.000108 -0.000004 64.392200 5.599380 -11.338200 -2.192480 -6.469440 -0.000000 -171.159000 5.328760 -3.828480 39.081100 -0.000007 -0.000012 0.376980 -0.714999 27.801100 40.985400 -0.000006 -0.000013 -0.102028 9.282740 -76.213300 11.754300 -0.000000 0.000003 0.000474 0.159219 -10.119400 -2.192510 6.469440 -0.000001 -169.981000 10.339600 -176.228000 -39.081100 -0.002282 -0.040193 0.123024 -0.453325 14.790600 -40.985400 0.000008 0.000006 6.128830 0.667623 -70.843400 -11.754300 -0.000006 -0.000006 -0.008654 0.260960 -5.973880
0.000000 0.000000 0.000000 0.000000 0.000000 -0.000000 -4.743080 91.890000 -0.889774 84.510200 1.558420 4.435480 15.735700 0.000005 -0.000001 64.315600 86.474500 -61.882100 8.984550 -0.406207 -0.000000 -1.338520 -3.248560 4.828450 16.377300 -0.000001 -0.000001 10.093100 1.380120 3.522190 6.456720 -0.000001 -0.000000 3.890330 2.530860 9.787610 12.994200 -0.242716 4.980390 -92.428100 7.055720 -70.954800 5.348090 -0.000007 -0.000001 -73.636500 29.787700 1.176450 24.328600 0.000019 0.000005 13.402600 29.760200 -25.643100 22.291600 -0.000001 0.000005 -4.226280 5.053410 6.161900 12.994500 -0.242716 -4.980390 87.652000 6.860400 -71.054300 -5.348130 -0.000001 -0.000004 -66.262400 -7.754820 -7.294190 -24.328900 0.000322 -0.000009 22.762700 -22.701200 -132.606000 -22.291500 -0.000108 -0.000004 64.050000 5.661600 -16.294300 -2.192480 -6.469440 -0.000000 -171.155000 5.300310 -3.832930 39.081100 -0.000007 -0.000012 0.375356 -0.711865 27.802900 40.985400 -0.000006 -0.000013 -0.110161 9.309390 -76.235100 11.754300 -0.000000 0.000003 0.000385 0.160865 -10.052500 -2.192510 6.469440 -0.000001 -169.980000 10.346000 -176.240000 -39.081100 -0.002282 -0.040193 0.125103 -0.460269 14.819300 -40.985400 0.000008 0.000006 6.150030 0.696235 -70.908100 -11.754300 -0.000006 -0.000006 -0.008848 0.262486 -5.911550
0.000000 0.000000 0.000000 0.000000 0.000000 -0.000000 -4.766900 91.887100 -0.886981 84.497900 1.571780 4.481350 15.735700 0.000005 -0.000001 64.266800 86.457400 -61.851800 8.984550 -0.406207 -0.000000 -1.310490 -3.266770 4.792200 16.377300 -0.000001 -0.000001 10.130100 1.364980 3.635900 6.456720 -0.000001 -0.000000 3.917550 2.568020 9.928290 12.994200 -0.242716 4.980390 -92.415000 7.021370 -70.964500 5.348090 -0.000007 -0.000001 -73.634900 29.849900 1.137350 24.328600 0.000019 0.000005 13.403100 29.713500 -25.676000 22.291600 -0.000001 0.000005 -4.178270 5.055050 6.125810 12.994500 -0.242716 -4.980390 87.646000 6.898800 -71.107100 -5.348130 -0.000001 -0.000004 -66.163600 -8.453700 -7.252420 -24.328900 0.000322 -0.000009 26.209000 -25.664900 -131.342000 -22.291500 -0.000108 -0.000004 64.193900 5.680290 -19.696400 -2.192480 -6.469440 -0.000000 -171.129000 5.340700 -3.794040 39.081100 -0.000007 -0.000012 0.373302 -0.707911 27.804900 40.985400 -0.000006 -0.000013 -0.119665 9.330110 -76.188900 11.754300 -0.000000 0.000003 0.000656 0.155730 -10.261000 -2.192510 6.469440 -0.000001 -169.964000 10.387000 -176.178000 -39.081100 -0.002282 -0.040193 0.123586 -0.455667 14.784100 -40.985400 0.000008 0.000006 6.163070 0.678943 -70.853500 -11.754300 -0.000006 -0.000006 -0.008716 0.261444 -5.954130
